# xmcd
#
# Track frame offsets:
#	150
#	24326
#	44563
#	53193
#	67412
#	78558
#	98516
#	116224
#	134859
#	147547
#	167357
#	178996
#	194869
#	217375
#	239298
#	255985
#	269260
#	282923
#	299448
#	315954
#
# Disc length: 4419 seconds
#
# Revision: 1
# Processed by: cddbd v1.5PL3 Copyright (c) Steve Scherf et al.
# Submitted via: EasyCDDAExtractor 6.0.0.1
#
DISCID=48114114
DTITLE=Bjørn Jens - De To Første - Før Det Første
DYEAR=2004
DGENRE=Country
TTITLE0=Bestefar
TTITLE1=Dame på byen
TTITLE2=Ekje Da Kjerlighet
TTITLE3=Før du drar avsted
TTITLE4=Godt i farta
TTITLE5=Møt meg på Stokka
TTITLE6=Sjømann
TTITLE7=Verdens verste band
TTITLE8=Vinter
TTITLE9=Lengte hjem
TTITLE10=Ka vil skje i natt
TTITLE11=Lov at du vil
TTITLE12=Takk førr alle kvelder
TTITLE13=Kom te me
TTITLE14=Sjømann
TTITLE15=Ka du heite
TTITLE16=Should have called
TTITLE17=Fengselsfugl
TTITLE18=Ensomme damer
TTITLE19=Slå meg ned
EXTD=
EXTT0=
EXTT1=
EXTT2=
EXTT3=
EXTT4=
EXTT5=
EXTT6=
EXTT7=
EXTT8=
EXTT9=
EXTT10=
EXTT11=
EXTT12=
EXTT13=
EXTT14=
EXTT15=
EXTT16=
EXTT17=
EXTT18=
EXTT19=
PLAYORDER=
